<?xml version="1.0" standalone="no"?>
<!DOCTYPE svg PUBLIC "-//W3C//DTD SVG 20010904//EN"
 "http://www.w3.org/TR/2001/REC-SVG-20010904/DTD/svg10.dtd">
<svg version="1.0" xmlns="http://www.w3.org/2000/svg"
 width="640.000000pt" height="1280.000000pt" viewBox="0 0 640.000000 1280.000000"
 preserveAspectRatio="xMidYMid meet">
<metadata>
Created by potrace 1.15, written by Peter Selinger 2001-2017
</metadata>
<g transform="translate(0.000000,1280.000000) scale(0.100000,-0.100000)"
fill="#000000" stroke="none">
<path d="M4067 12778 c-8 -13 -23 -48 -32 -78 -19 -58 -95 -179 -137 -218
l-25 -23 -36 21 -37 22 2 99 c1 67 -2 103 -10 111 -22 22 -32 -12 -26 -87 3
-38 1 -75 -3 -82 -7 -9 -30 -5 -93 17 -346 118 -873 78 -1190 -92 -234 -124
-470 -360 -608 -608 -44 -78 -193 -432 -217 -513 -10 -34 -15 -81 -13 -112 l3
-54 -35 -6 c-74 -14 -110 -59 -150 -194 -19 -63 -22 -89 -18 -176 7 -135 27
-179 98 -225 43 -27 64 -34 104 -35 l51 0 12 -92 c22 -177 77 -353 163 -528
89 -183 209 -348 337 -465 32 -30 52 -55 47 -60 -46 -45 -414 -322 -434 -326
-104 -22 -332 -124 -418 -188 -116 -86 -175 -172 -251 -365 -104 -267 -151
-478 -181 -824 -13 -146 -16 -482 -5 -572 12 -110 55 -359 71 -415 20 -69 203
-435 366 -730 l124 -225 39 2 c21 2 53 11 71 22 l32 19 7 -71 c4 -41 2 -91 -4
-117 -31 -133 20 -240 114 -240 25 0 25 -1 25 -74 l0 -73 -67 -7 c-38 -3 -90
-12 -118 -19 l-50 -13 -7 -95 c-36 -528 -33 -1474 8 -2008 l6 -84 270 6 c148
3 272 8 276 12 3 3 11 124 17 268 10 252 15 281 30 172 22 -161 122 -600 149
-653 8 -15 28 -41 44 -58 26 -26 31 -42 46 -139 76 -496 101 -777 116 -1320 5
-170 11 -318 15 -327 6 -16 21 -18 106 -18 117 0 126 -11 45 -53 -82 -43 -150
-97 -259 -205 -167 -165 -245 -275 -292 -415 -44 -131 -27 -246 39 -263 81
-20 318 130 511 325 l80 81 76 0 76 0 84 93 c133 145 134 146 133 252 -1 63
-7 107 -21 147 l-20 58 33 25 c19 14 37 37 40 51 6 25 8 25 68 19 33 -4 63 -9
65 -10 1 -2 -10 -21 -25 -41 -29 -37 -29 -39 -29 -179 0 -134 2 -143 27 -186
33 -57 104 -123 162 -151 44 -21 47 -21 121 -5 l75 16 42 -45 c57 -62 181
-142 329 -213 195 -94 267 -110 319 -74 67 46 73 93 25 190 -47 95 -162 247
-257 340 -143 140 -347 275 -438 289 -35 6 -37 8 -31 37 7 34 17 38 144 52
l58 7 -5 36 c-13 81 -27 526 -21 662 14 335 45 624 91 850 22 107 30 130 58
160 69 77 91 180 151 711 67 598 123 965 203 1324 l28 129 47 12 c25 6 67 24
93 39 60 35 76 73 103 240 12 72 25 150 29 175 7 41 9 45 45 52 91 19 109 50
117 208 4 77 12 125 23 145 32 59 31 58 71 31 35 -23 146 -70 151 -64 1 2 64
255 139 563 76 308 164 659 196 780 83 312 91 359 91 515 1 217 -55 440 -205
826 -106 275 -185 441 -230 488 -80 82 -234 149 -409 180 -76 13 -94 20 -126
49 -100 90 -320 213 -517 287 l-25 10 62 72 c122 142 257 373 316 543 38 106
90 305 98 369 7 52 9 56 29 49 39 -13 144 -5 176 14 93 54 133 233 94 421 -20
101 -60 180 -104 210 -31 21 -44 23 -115 20 l-80 -3 0 120 c-1 102 -6 139 -34
250 -56 219 -114 344 -299 642 l-101 163 26 20 c19 15 41 20 82 20 53 0 81 11
81 33 0 16 -126 0 -174 -22 -39 -17 -45 -17 -59 -4 -14 14 -10 22 35 82 59 77
138 232 138 272 0 37 -16 45 -33 17z"/>
</g>
</svg>
