<?xml version="1.0" standalone="no"?>
<!DOCTYPE svg PUBLIC "-//W3C//DTD SVG 20010904//EN"
 "http://www.w3.org/TR/2001/REC-SVG-20010904/DTD/svg10.dtd">
<svg version="1.0" xmlns="http://www.w3.org/2000/svg"
 width="1280.000000pt" height="1070.000000pt" viewBox="0 0 1280.000000 1070.000000"
 preserveAspectRatio="xMidYMid meet">
<g transform="translate(0.000000,1070.000000) scale(0.100000,-0.100000)"
fill="#000000" stroke="none">
<path d="M4168 10694 c-7 -6 -167 -25 -623 -73 -159 -17 -306 -34 -325 -37
-31 -4 -41 0 -72 30 -21 21 -47 36 -60 36 -13 0 -86 -25 -163 -56 l-139 -56
-216 -24 c-118 -13 -345 -37 -505 -54 -159 -17 -303 -36 -318 -42 -40 -16 -49
-39 -46 -129 2 -59 -1 -83 -11 -93 -8 -8 -66 -57 -129 -109 l-113 -95 -327
-132 c-331 -134 -382 -162 -381 -208 1 -9 16 -55 34 -102 18 -47 31 -89 29
-95 -3 -5 -177 -154 -388 -330 -225 -188 -391 -333 -402 -353 -15 -28 -16 -35
-4 -54 20 -32 1988 -2379 2018 -2405 25 -24 71 -30 102 -13 10 5 184 149 387
319 203 171 375 311 382 311 8 0 39 -20 70 -44 130 -99 302 -199 1212 -702
525 -290 963 -534 973 -542 16 -14 17 -145 17 -2476 0 -1593 4 -2486 10 -2531
30 -209 100 -366 213 -483 131 -135 277 -164 433 -87 148 72 258 238 317 475
20 83 21 113 26 1110 l6 1025 95 0 95 0 6 -1025 c6 -1102 5 -1068 59 -1230 48
-143 140 -276 239 -344 46 -32 163 -76 202 -76 29 0 119 29 170 55 115 60 221
203 277 375 54 166 52 39 52 2740 0 1986 3 2500 13 2508 6 5 417 233 912 507
982 542 1057 585 1189 679 56 40 95 62 105 58 54 -19 136 -102 424 -428 191
-217 331 -367 344 -370 13 -4 34 -3 47 0 23 6 2341 2044 2378 2091 10 13 18
32 18 42 0 21 11 8 -398 471 l-303 344 7 43 c3 24 3 53 -1 65 -4 13 -59 55
-140 108 l-134 87 -326 370 c-179 204 -337 380 -351 393 -41 36 -84 30 -148
-23 -31 -25 -64 -45 -73 -45 -10 0 -84 18 -166 39 -113 30 -162 49 -210 79
-34 22 -172 110 -306 196 -161 103 -253 156 -271 156 -38 0 -72 -30 -119 -105
-29 -46 -47 -65 -62 -65 -11 0 -234 56 -495 125 -260 69 -483 125 -493 125
-11 0 -32 -10 -46 -23 -29 -24 1 84 -466 -1687 -72 -272 -182 -690 -245 -928
-63 -239 -114 -442 -114 -452 0 -43 41 -68 165 -100 198 -52 225 -61 225 -74
0 -7 -323 -191 -718 -409 l-718 -397 -658 0 -658 0 -726 401 c-400 221 -733
408 -741 415 -8 7 -12 16 -8 20 3 4 104 17 224 31 120 13 230 28 244 34 15 6
32 21 39 34 14 26 15 20 -50 615 -29 259 -153 1397 -220 2015 -62 571 -55 526
-92 558 -30 25 -67 35 -80 21z"/>
<path d="M6092 8780 c-406 -57 -751 -357 -866 -752 -134 -465 65 -963 483
-1208 306 -178 694 -187 1014 -24 103 52 150 87 250 183 278 268 383 648 286
1029 -24 97 -113 277 -178 363 -144 189 -356 328 -591 388 -97 25 -297 35
-398 21z"/>
</g>
</svg>
